<svg width="32" height="32" viewBox="0 0 32 32" fill="none" xmlns="http://www.w3.org/2000/svg">
  <!-- Background circle with gradient -->
  <defs>
    <linearGradient id="bg" x1="0%" y1="0%" x2="100%" y2="100%">
      <stop offset="0%" style="stop-color:#03a9f4;stop-opacity:1" />
      <stop offset="100%" style="stop-color:#0277bd;stop-opacity:1" />
    </linearGradient>
    <linearGradient id="chart" x1="0%" y1="100%" x2="100%" y2="0%">
      <stop offset="0%" style="stop-color:#ffc107;stop-opacity:1" />
      <stop offset="50%" style="stop-color:#ff5722;stop-opacity:1" />
      <stop offset="100%" style="stop-color:#e91e63;stop-opacity:1" />
    </linearGradient>
  </defs>
  
  <!-- Background -->
  <circle cx="16" cy="16" r="16" fill="url(#bg)"/>
  
  <!-- Chart bars -->
  <rect x="6" y="22" width="3" height="6" fill="url(#chart)" rx="1"/>
  <rect x="10" y="18" width="3" height="10" fill="url(#chart)" rx="1"/>
  <rect x="14" y="14" width="3" height="14" fill="url(#chart)" rx="1"/>
  <rect x="18" y="16" width="3" height="12" fill="url(#chart)" rx="1"/>
  <rect x="22" y="12" width="3" height="16" fill="url(#chart)" rx="1"/>
  
  <!-- Trend line -->
  <path d="M6 24 L10 20 L14 16 L18 18 L22 14 L26 10" stroke="white" stroke-width="2" fill="none" opacity="0.8"/>
  
  <!-- Data points -->
  <circle cx="6" cy="24" r="2" fill="white" opacity="0.9"/>
  <circle cx="10" cy="20" r="2" fill="white" opacity="0.9"/>
  <circle cx="14" cy="16" r="2" fill="white" opacity="0.9"/>
  <circle cx="18" cy="18" r="2" fill="white" opacity="0.9"/>
  <circle cx="22" cy="14" r="2" fill="white" opacity="0.9"/>
  <circle cx="26" cy="10" r="2" fill="white" opacity="0.9"/>
</svg>