<svg width="192" height="192" viewBox="0 0 192 192" fill="none" xmlns="http://www.w3.org/2000/svg">
  <!-- Background circle with gradient -->
  <defs>
    <linearGradient id="bg" x1="0%" y1="0%" x2="100%" y2="100%">
      <stop offset="0%" style="stop-color:#03a9f4;stop-opacity:1" />
      <stop offset="100%" style="stop-color:#0277bd;stop-opacity:1" />
    </linearGradient>
    <linearGradient id="chart" x1="0%" y1="100%" x2="100%" y2="0%">
      <stop offset="0%" style="stop-color:#ffc107;stop-opacity:1" />
      <stop offset="50%" style="stop-color:#ff5722;stop-opacity:1" />
      <stop offset="100%" style="stop-color:#e91e63;stop-opacity:1" />
    </linearGradient>
  </defs>
  
  <!-- Background -->
  <circle cx="96" cy="96" r="96" fill="url(#bg)"/>
  
  <!-- Chart bars -->
  <rect x="36" y="132" width="18" height="36" fill="url(#chart)" rx="6"/>
  <rect x="60" y="108" width="18" height="60" fill="url(#chart)" rx="6"/>
  <rect x="84" y="84" width="18" height="84" fill="url(#chart)" rx="6"/>
  <rect x="108" y="96" width="18" height="72" fill="url(#chart)" rx="6"/>
  <rect x="132" y="72" width="18" height="96" fill="url(#chart)" rx="6"/>
  
  <!-- Trend line -->
  <path d="M36 144 L60 120 L84 96 L108 108 L132 84 L156 60" stroke="white" stroke-width="8" fill="none" opacity="0.8" stroke-linecap="round"/>
  
  <!-- Data points -->
  <circle cx="36" cy="144" r="8" fill="white" opacity="0.9"/>
  <circle cx="60" cy="120" r="8" fill="white" opacity="0.9"/>
  <circle cx="84" cy="96" r="8" fill="white" opacity="0.9"/>
  <circle cx="108" cy="108" r="8" fill="white" opacity="0.9"/>
  <circle cx="132" cy="84" r="8" fill="white" opacity="0.9"/>
  <circle cx="156" cy="60" r="8" fill="white" opacity="0.9"/>
</svg>